<?xml version="1.0" encoding="UTF-8" standalone="no"?>
<!DOCTYPE svg PUBLIC "-//W3C//DTD SVG 1.1//EN" "http://www.w3.org/Graphics/SVG/1.1/DTD/svg11.dtd">
<svg version="1.1" xmlns="http://www.w3.org/2000/svg" xmlns:xlink="http://www.w3.org/1999/xlink" preserveAspectRatio="xMidYMid meet" viewBox="0 0 640 640" width="640" height="640"><defs><path d="M440.11 184.02C453.34 177.58 456.08 159.92 445.42 149.78C416.22 121.97 358.16 66.69 330.84 40.68C314.5 25.12 288.05 28.26 275.8 47.2C245.47 94.13 184.31 188.75 155.54 233.25C137.26 261.54 141.41 298.78 165.48 322.34C196.38 352.59 257.28 412.2 290.56 444.79C307.54 461.41 334.06 463.3 353.22 449.25C392.97 420.1 456.91 373.21 491.14 348.11C505.54 337.55 495.51 314.79 478 318.3C442.28 325.44 389.11 336.07 348.4 344.22C317.47 350.4 285.42 341.96 261.56 321.34C252.42 313.44 262.9 322.5 253.79 314.62C232 295.79 227.28 263.85 242.69 239.53C248.5 230.36 263.03 207.42 286.28 170.73C253.95 169.19 233.75 168.22 225.67 167.84C222.79 167.7 222.67 163.49 225.53 163.19C266.28 158.88 356.61 149.33 396.95 145.07C401.76 144.56 403.35 151.32 398.82 153.01C378.93 160.43 356.9 168.65 338.8 175.4C315.1 184.24 299.38 206.88 299.38 232.18C299.38 242.11 299.38 223.76 299.38 232.18C299.38 259.61 321.62 281.86 349.06 281.86C365.67 281.86 407.18 281.86 473.61 281.86C415.65 262.54 379.43 250.46 364.94 245.63C353.79 241.92 352.78 226.53 363.35 221.39C384.17 211.25 418.98 194.31 440.11 184.02Z" id="d1KUDXTHya"></path></defs><g><g><g><use xlink:href="#d1KUDXTHya" opacity="1" fill="#1d457e" fill-opacity="1"></use><g><use xlink:href="#d1KUDXTHya" opacity="1" fill-opacity="0" stroke="#000000" stroke-width="1" stroke-opacity="1"></use></g></g></g></g></svg>